<?xml version="1.0" encoding="UTF-8" standalone="no"?>
<svg width="192px" height="50px" viewBox="0 0 192 50" version="1.1" xmlns="http://www.w3.org/2000/svg" xmlns:xlink="http://www.w3.org/1999/xlink">
    <!-- Generator: Sketch 40 (33762) - http://www.bohemiancoding.com/sketch -->
    <title>Group 3 Copy</title>
    <desc>Created with Sketch.</desc>
    <defs></defs>
    <g id="Cheq-Landing-Page" stroke="none" stroke-width="1" fill="none" fill-rule="evenodd">
        <g id="4-pane" transform="translate(-718.000000, -556.000000)">
            <g id="Group-3" transform="translate(718.000000, 556.000000)">
                <g id="Group-3-Copy">
                    <rect id="Rectangle-1" fill="#FFFFFF" x="0" y="0" width="192" height="50" rx="4"></rect>
                    <path d="M29.3734166,16.2488095 C32.9932226,16.2488095 35.3079389,19.3863333 35.3079389,19.3863333 C35.3079389,19.3863333 31.7769249,21.1028571 31.7769249,24.8307381 C31.7769249,29.2553095 36.212699,30.5423571 36.212699,30.5423571 C36.212699,30.5423571 32.7115375,37.9843095 28.780194,37.9843095 C26.5695787,37.9843095 26.4218472,36.8450238 23.4840558,36.8450238 C20.9328159,36.8450238 20.0724518,37.9843095 18.1289781,37.9843095 C14.4196146,37.9843095 9.62790698,30.7301667 9.62790698,24.8307381 C9.62790698,18.7027619 14.4793196,16.2488095 17.5204465,16.2488095 C20.1910963,16.2488095 21.303293,17.6566905 23.4542033,17.6566905 C25.264489,17.6566905 26.6889887,16.2488095 29.3734166,16.2488095 L29.3734166,16.2488095 Z M28.751107,10 C29.2846246,13.0035714 26.2434977,16.7183333 22.6091482,16.5975 C22.0748651,12.7757143 25.9916651,10.201619 28.751107,10 L28.751107,10 Z" id="Imported-Layers" fill="#3F3F3F"></path>
                </g>
            </g>
        </g>
    </g>
</svg>